<svg width="25" height="29" viewBox="0 0 25 29" fill="none" xmlns="http://www.w3.org/2000/svg">
<path d="M12.4445 28.4444C14.4067 28.4444 15.9984 26.8528 15.9984 24.8889H8.89059C8.89059 26.8528 10.4823 28.4444 12.4445 28.4444ZM24.4106 20.1272C23.3373 18.9739 21.3289 17.2389 21.3289 11.5556C21.3289 7.23889 18.3023 3.78333 14.2211 2.93556V1.77778C14.2211 0.796111 13.4256 0 12.4445 0C11.4634 0 10.6678 0.796111 10.6678 1.77778V2.93556C6.58671 3.78333 3.56004 7.23889 3.56004 11.5556C3.56004 17.2389 1.55171 18.9739 0.478372 20.1272C0.145038 20.4856 -0.00273937 20.9139 3.84105e-05 21.3333C0.00614952 22.2444 0.721149 23.1111 1.78337 23.1111H23.1056C24.1678 23.1111 24.8834 22.2444 24.8889 21.3333C24.8917 20.9139 24.7439 20.485 24.4106 20.1272Z" fill="#111111"/>
</svg>
